<svg width="1052" height="417" viewBox="0 0 1052 417" fill="none" xmlns="http://www.w3.org/2000/svg">
<g filter="url(#filter0_d_1:63)">
<rect width="130.004" height="130.004" transform="translate(188 129) rotate(45)" fill="#FFF85A"/>
<path d="M164.149 220.49C163.024 220.166 162.203 219.77 161.688 219.3C161.178 218.826 160.923 218.243 160.923 217.55C160.923 216.767 161.235 216.119 161.859 215.609C162.488 215.094 163.304 214.837 164.307 214.837C164.99 214.837 165.599 214.969 166.132 215.233C166.67 215.497 167.084 215.862 167.376 216.327C167.672 216.792 167.82 217.3 167.82 217.851H166.501C166.501 217.25 166.31 216.778 165.927 216.436C165.544 216.09 165.004 215.917 164.307 215.917C163.66 215.917 163.154 216.06 162.789 216.347C162.429 216.63 162.249 217.024 162.249 217.53C162.249 217.936 162.42 218.28 162.762 218.562C163.108 218.84 163.694 219.095 164.519 219.328C165.348 219.56 165.995 219.818 166.46 220.1C166.929 220.378 167.276 220.704 167.499 221.078C167.727 221.451 167.841 221.891 167.841 222.397C167.841 223.204 167.526 223.851 166.897 224.339C166.269 224.822 165.428 225.063 164.375 225.063C163.691 225.063 163.053 224.933 162.461 224.673C161.868 224.409 161.41 224.049 161.087 223.593C160.768 223.138 160.608 222.62 160.608 222.042H161.928C161.928 222.643 162.149 223.119 162.591 223.47C163.037 223.817 163.632 223.99 164.375 223.99C165.068 223.99 165.599 223.849 165.968 223.566C166.337 223.283 166.521 222.898 166.521 222.411C166.521 221.923 166.351 221.547 166.009 221.283C165.667 221.014 165.047 220.75 164.149 220.49ZM170.937 224.926H169.625V214.973H170.937V224.926ZM180.692 223.621C180.355 224.104 179.883 224.466 179.277 224.708C178.676 224.945 177.974 225.063 177.172 225.063C176.361 225.063 175.641 224.874 175.012 224.496C174.383 224.113 173.895 223.571 173.549 222.869C173.207 222.167 173.032 221.353 173.022 220.428V219.56C173.022 218.061 173.371 216.899 174.068 216.074C174.77 215.249 175.755 214.837 177.021 214.837C178.061 214.837 178.897 215.103 179.53 215.636C180.164 216.165 180.551 216.917 180.692 217.892H179.38C179.134 216.575 178.35 215.917 177.028 215.917C176.149 215.917 175.481 216.227 175.025 216.846C174.574 217.462 174.346 218.355 174.342 219.526V220.339C174.342 221.456 174.597 222.345 175.107 223.005C175.618 223.662 176.308 223.99 177.179 223.99C177.671 223.99 178.102 223.935 178.471 223.826C178.84 223.716 179.145 223.532 179.387 223.272V221.037H177.083V219.97H180.692V223.621ZM190.536 224.926H189.217L184.206 217.256V224.926H182.887V214.973H184.206L189.23 222.677V214.973H190.536V224.926ZM198.001 225.959H191.739V224.926H198.001V225.959ZM206.19 214.973V221.741C206.186 222.68 205.89 223.448 205.302 224.045C204.718 224.642 203.925 224.977 202.923 225.049L202.574 225.063C201.485 225.063 200.617 224.769 199.97 224.181C199.323 223.593 198.994 222.784 198.985 221.755V214.973H200.284V221.714C200.284 222.434 200.482 222.994 200.879 223.395C201.275 223.792 201.84 223.99 202.574 223.99C203.317 223.99 203.884 223.792 204.276 223.395C204.673 222.999 204.871 222.44 204.871 221.72V214.973H206.19ZM209.574 221.03V224.926H208.262V214.973H211.933C213.022 214.973 213.874 215.251 214.489 215.807C215.109 216.363 215.419 217.099 215.419 218.015C215.419 218.981 215.116 219.727 214.51 220.251C213.908 220.77 213.045 221.03 211.919 221.03H209.574ZM209.574 219.957H211.933C212.634 219.957 213.172 219.793 213.546 219.464C213.92 219.132 214.106 218.653 214.106 218.029C214.106 217.436 213.92 216.963 213.546 216.607C213.172 216.252 212.66 216.067 212.008 216.053H209.574V219.957Z" fill="black"/>
<rect width="130.004" height="130.004" transform="translate(420.926 129) rotate(45)" fill="#8D0B88"/>
<path d="M387.635 220.49C386.51 220.166 385.689 219.77 385.174 219.3C384.664 218.826 384.409 218.243 384.409 217.55C384.409 216.767 384.721 216.119 385.345 215.609C385.974 215.094 386.79 214.837 387.793 214.837C388.476 214.837 389.085 214.969 389.618 215.233C390.156 215.497 390.57 215.862 390.862 216.327C391.158 216.792 391.306 217.3 391.306 217.851H389.987C389.987 217.25 389.796 216.778 389.413 216.436C389.03 216.09 388.49 215.917 387.793 215.917C387.145 215.917 386.64 216.06 386.275 216.347C385.915 216.63 385.735 217.024 385.735 217.53C385.735 217.936 385.906 218.28 386.248 218.562C386.594 218.84 387.18 219.095 388.005 219.328C388.834 219.56 389.481 219.818 389.946 220.1C390.415 220.378 390.762 220.704 390.985 221.078C391.213 221.451 391.327 221.891 391.327 222.397C391.327 223.204 391.012 223.851 390.383 224.339C389.755 224.822 388.914 225.063 387.861 225.063C387.177 225.063 386.539 224.933 385.947 224.673C385.354 224.409 384.896 224.049 384.573 223.593C384.254 223.138 384.094 222.62 384.094 222.042H385.414C385.414 222.643 385.635 223.119 386.077 223.47C386.523 223.817 387.118 223.99 387.861 223.99C388.554 223.99 389.085 223.849 389.454 223.566C389.823 223.283 390.007 222.898 390.007 222.411C390.007 221.923 389.837 221.547 389.495 221.283C389.153 221.014 388.533 220.75 387.635 220.49ZM400.672 220.271C400.672 221.246 400.507 222.099 400.179 222.828C399.851 223.552 399.386 224.106 398.785 224.489C398.183 224.872 397.481 225.063 396.679 225.063C395.895 225.063 395.2 224.872 394.594 224.489C393.988 224.102 393.517 223.552 393.179 222.841C392.847 222.126 392.676 221.299 392.667 220.36V219.642C392.667 218.685 392.833 217.84 393.166 217.106C393.498 216.372 393.968 215.812 394.574 215.424C395.185 215.033 395.882 214.837 396.666 214.837C397.463 214.837 398.165 215.03 398.771 215.418C399.382 215.8 399.851 216.359 400.179 217.092C400.507 217.822 400.672 218.672 400.672 219.642V220.271ZM399.366 219.629C399.366 218.448 399.129 217.544 398.655 216.915C398.181 216.281 397.518 215.964 396.666 215.964C395.836 215.964 395.182 216.281 394.704 216.915C394.23 217.544 393.986 218.419 393.972 219.54V220.271C393.972 221.415 394.212 222.315 394.69 222.971C395.173 223.623 395.836 223.949 396.679 223.949C397.527 223.949 398.183 223.641 398.648 223.026C399.113 222.406 399.352 221.52 399.366 220.367V219.629ZM404.336 214.973L407.589 223.094L410.843 214.973H412.546V224.926H411.233V221.05L411.356 216.867L408.088 224.926H407.084L403.823 216.887L403.953 221.05V224.926H402.64V214.973H404.336ZM420.489 220.326H416.175V223.853H421.186V224.926H414.863V214.973H421.118V216.053H416.175V219.253H420.489V220.326ZM432.896 216.053H429.697V224.926H428.391V216.053H425.199V214.973H432.896V216.053ZM439.999 220.326H435.685V223.853H440.696V224.926H434.373V214.973H440.628V216.053H435.685V219.253H439.999V220.326ZM445.577 218.788L447.963 214.973H449.507L446.363 219.909L449.583 224.926H448.024L445.577 221.044L443.116 224.926H441.564L444.791 219.909L441.639 214.973H443.177L445.577 218.788ZM457.984 216.053H454.785V224.926H453.479V216.053H450.287V214.973H457.984V216.053Z" fill="white"/>
<path d="M585 223C585 209.193 596.193 198 610 198H709C722.807 198 734 209.193 734 223V223C734 236.807 722.807 248 709 248H610C596.193 248 585 236.807 585 223V223Z" fill="#FFF85A"/>
<path d="M626.209 223.563C625.083 223.24 624.263 222.843 623.748 222.374C623.238 221.9 622.982 221.317 622.982 220.624C622.982 219.84 623.295 219.193 623.919 218.683C624.548 218.168 625.364 217.91 626.366 217.91C627.05 217.91 627.658 218.042 628.191 218.307C628.729 218.571 629.144 218.936 629.436 219.4C629.732 219.865 629.88 220.373 629.88 220.925H628.561C628.561 220.323 628.369 219.852 627.986 219.51C627.604 219.163 627.063 218.99 626.366 218.99C625.719 218.99 625.213 219.134 624.849 219.421C624.489 219.703 624.309 220.098 624.309 220.604C624.309 221.009 624.479 221.353 624.821 221.636C625.168 221.914 625.753 222.169 626.578 222.401C627.408 222.634 628.055 222.891 628.52 223.174C628.989 223.452 629.335 223.778 629.559 224.151C629.786 224.525 629.9 224.965 629.9 225.471C629.9 226.277 629.586 226.924 628.957 227.412C628.328 227.895 627.487 228.137 626.435 228.137C625.751 228.137 625.113 228.007 624.521 227.747C623.928 227.483 623.47 227.123 623.146 226.667C622.827 226.211 622.668 225.694 622.668 225.115H623.987C623.987 225.717 624.208 226.193 624.65 226.544C625.097 226.89 625.692 227.063 626.435 227.063C627.127 227.063 627.658 226.922 628.027 226.64C628.396 226.357 628.581 225.972 628.581 225.484C628.581 224.997 628.41 224.621 628.068 224.356C627.727 224.088 627.107 223.823 626.209 223.563ZM639.245 223.345C639.245 224.32 639.081 225.172 638.753 225.901C638.425 226.626 637.96 227.18 637.358 227.562C636.757 227.945 636.055 228.137 635.253 228.137C634.469 228.137 633.774 227.945 633.168 227.562C632.562 227.175 632.09 226.626 631.753 225.915C631.42 225.2 631.249 224.372 631.24 223.434V222.716C631.24 221.759 631.407 220.913 631.739 220.18C632.072 219.446 632.541 218.885 633.147 218.498C633.758 218.106 634.455 217.91 635.239 217.91C636.037 217.91 636.739 218.104 637.345 218.491C637.955 218.874 638.425 219.432 638.753 220.166C639.081 220.895 639.245 221.745 639.245 222.716V223.345ZM637.939 222.702C637.939 221.522 637.702 220.617 637.229 219.988C636.755 219.355 636.091 219.038 635.239 219.038C634.41 219.038 633.756 219.355 633.277 219.988C632.803 220.617 632.56 221.492 632.546 222.613V223.345C632.546 224.489 632.785 225.389 633.264 226.045C633.747 226.697 634.41 227.022 635.253 227.022C636.101 227.022 636.757 226.715 637.222 226.1C637.687 225.48 637.926 224.593 637.939 223.44V222.702ZM642.909 218.047L646.163 226.168L649.417 218.047H651.119V228H649.807V224.124L649.93 219.94L646.662 228H645.657L642.396 219.961L642.526 224.124V228H641.214V218.047H642.909ZM659.062 223.399H654.749V226.927H659.76V228H653.437V218.047H659.691V219.127H654.749V222.326H659.062V223.399ZM671.47 219.127H668.271V228H666.965V219.127H663.772V218.047H671.47V219.127ZM678.572 223.399H674.259V226.927H679.27V228H672.946V218.047H679.201V219.127H674.259V222.326H678.572V223.399ZM684.15 221.861L686.536 218.047H688.081L684.937 222.982L688.156 228H686.598L684.15 224.117L681.689 228H680.138L683.364 222.982L680.213 218.047H681.751L684.15 221.861ZM696.558 219.127H693.358V228H692.053V219.127H688.86V218.047H696.558V219.127Z" fill="black"/>
<path d="M512.853 216.426C510.353 216.426 508.353 218.426 508.353 220.926C508.353 223.426 510.353 225.426 512.853 225.426C515.353 225.426 517.353 223.426 517.353 220.926C517.353 218.426 515.353 216.426 512.853 216.426Z" fill="white"/>
<path d="M586.061 222.061C586.646 221.475 586.646 220.525 586.061 219.939L576.515 210.393C575.929 209.808 574.979 209.808 574.393 210.393C573.808 210.979 573.808 211.929 574.393 212.515L582.879 221L574.393 229.485C573.808 230.071 573.808 231.021 574.393 231.607C574.979 232.192 575.929 232.192 576.515 231.607L586.061 222.061ZM509.853 220.926C509.853 219.255 511.181 217.926 512.853 217.926V214.926C509.524 214.926 506.853 217.598 506.853 220.926H509.853ZM512.853 217.926C514.524 217.926 515.853 219.255 515.853 220.926H518.853C518.853 217.598 516.181 214.926 512.853 214.926V217.926ZM515.853 220.926C515.853 222.598 514.524 223.926 512.853 223.926V226.926C516.181 226.926 518.853 224.255 518.853 220.926H515.853ZM512.853 223.926C511.181 223.926 509.853 222.598 509.853 220.926H506.853C506.853 224.255 509.524 226.926 512.853 226.926V223.926ZM517.353 222.426H548.89V219.426H517.353V222.426ZM548.963 222.5H585V219.5H548.963V222.5ZM547.426 220.963C547.426 221.812 548.114 222.5 548.963 222.5V219.5C549.771 219.5 550.426 220.155 550.426 220.963H547.426ZM548.89 222.426C548.082 222.426 547.426 221.771 547.426 220.963H550.426C550.426 220.114 549.738 219.426 548.89 219.426V222.426Z" fill="black"/>
<g filter="url(#filter1_d_1:63)">
<rect width="149" height="55" transform="translate(788 273)" fill="#FFF85A"/>
<path d="M819.697 301.296C818.25 300.88 817.195 300.37 816.533 299.767C815.877 299.157 815.549 298.407 815.549 297.517C815.549 296.509 815.95 295.677 816.753 295.021C817.562 294.358 818.61 294.027 819.899 294.027C820.778 294.027 821.561 294.197 822.246 294.537C822.938 294.877 823.471 295.346 823.846 295.943C824.227 296.541 824.417 297.194 824.417 297.903H822.721C822.721 297.13 822.475 296.523 821.982 296.084C821.49 295.639 820.796 295.416 819.899 295.416C819.067 295.416 818.417 295.601 817.948 295.97C817.485 296.333 817.254 296.84 817.254 297.49C817.254 298.012 817.474 298.454 817.913 298.817C818.358 299.175 819.111 299.503 820.172 299.802C821.238 300.101 822.07 300.432 822.668 300.795C823.271 301.152 823.717 301.571 824.004 302.052C824.297 302.532 824.443 303.098 824.443 303.748C824.443 304.785 824.039 305.617 823.23 306.244C822.422 306.865 821.341 307.176 819.987 307.176C819.108 307.176 818.288 307.009 817.526 306.675C816.765 306.335 816.176 305.872 815.76 305.286C815.35 304.7 815.145 304.035 815.145 303.291H816.841C816.841 304.064 817.125 304.677 817.693 305.128C818.268 305.573 819.032 305.796 819.987 305.796C820.878 305.796 821.561 305.614 822.035 305.251C822.51 304.888 822.747 304.393 822.747 303.766C822.747 303.139 822.527 302.655 822.088 302.315C821.648 301.97 820.852 301.63 819.697 301.296ZM836.458 301.015C836.458 302.269 836.247 303.364 835.825 304.302C835.403 305.233 834.806 305.945 834.032 306.438C833.259 306.93 832.356 307.176 831.325 307.176C830.317 307.176 829.424 306.93 828.645 306.438C827.865 305.939 827.259 305.233 826.825 304.319C826.397 303.399 826.178 302.336 826.166 301.129V300.206C826.166 298.976 826.38 297.889 826.808 296.945C827.235 296.002 827.839 295.281 828.618 294.783C829.403 294.279 830.3 294.027 831.308 294.027C832.333 294.027 833.235 294.276 834.015 294.774C834.8 295.267 835.403 295.984 835.825 296.928C836.247 297.865 836.458 298.958 836.458 300.206V301.015ZM834.779 300.188C834.779 298.671 834.475 297.508 833.865 296.699C833.256 295.885 832.403 295.478 831.308 295.478C830.241 295.478 829.4 295.885 828.785 296.699C828.176 297.508 827.862 298.633 827.845 300.074V301.015C827.845 302.485 828.152 303.643 828.768 304.486C829.389 305.324 830.241 305.743 831.325 305.743C832.415 305.743 833.259 305.348 833.856 304.557C834.454 303.76 834.762 302.62 834.779 301.138V300.188ZM841.169 294.203L845.353 304.645L849.536 294.203H851.725V307H850.037V302.017L850.195 296.638L845.994 307H844.702L840.51 296.664L840.677 302.017V307H838.989V294.203H841.169ZM861.938 301.085H856.392V305.62H862.834V307H854.704V294.203H862.746V295.592H856.392V299.705H861.938V301.085ZM877.89 295.592H873.776V307H872.098V295.592H867.993V294.203H877.89V295.592ZM887.021 301.085H881.476V305.62H887.918V307H879.788V294.203H887.83V295.592H881.476V299.705H887.021V301.085ZM894.193 299.107L897.261 294.203H899.247L895.204 300.549L899.344 307H897.34L894.193 302.008L891.029 307H889.034L893.183 300.549L889.131 294.203H891.108L894.193 299.107ZM910.146 295.592H906.032V307H904.354V295.592H900.249V294.203H910.146V295.592Z" fill="black"/>
</g>
<g filter="url(#filter2_d_1:63)">
<rect width="149" height="55" transform="translate(792 110)" fill="#FFF85A"/>
<path d="M823.697 138.296C822.25 137.88 821.195 137.37 820.533 136.767C819.877 136.157 819.549 135.407 819.549 134.517C819.549 133.509 819.95 132.677 820.753 132.021C821.562 131.358 822.61 131.027 823.899 131.027C824.778 131.027 825.561 131.197 826.246 131.537C826.938 131.877 827.471 132.346 827.846 132.943C828.227 133.541 828.417 134.194 828.417 134.903H826.721C826.721 134.13 826.475 133.523 825.982 133.084C825.49 132.639 824.796 132.416 823.899 132.416C823.067 132.416 822.417 132.601 821.948 132.97C821.485 133.333 821.254 133.84 821.254 134.49C821.254 135.012 821.474 135.454 821.913 135.817C822.358 136.175 823.111 136.503 824.172 136.802C825.238 137.101 826.07 137.432 826.668 137.795C827.271 138.152 827.717 138.571 828.004 139.052C828.297 139.532 828.443 140.098 828.443 140.748C828.443 141.785 828.039 142.617 827.23 143.244C826.422 143.865 825.341 144.176 823.987 144.176C823.108 144.176 822.288 144.009 821.526 143.675C820.765 143.335 820.176 142.872 819.76 142.286C819.35 141.7 819.145 141.035 819.145 140.291H820.841C820.841 141.064 821.125 141.677 821.693 142.128C822.268 142.573 823.032 142.796 823.987 142.796C824.878 142.796 825.561 142.614 826.035 142.251C826.51 141.888 826.747 141.393 826.747 140.766C826.747 140.139 826.527 139.655 826.088 139.315C825.648 138.97 824.852 138.63 823.697 138.296ZM840.458 138.015C840.458 139.269 840.247 140.364 839.825 141.302C839.403 142.233 838.806 142.945 838.032 143.438C837.259 143.93 836.356 144.176 835.325 144.176C834.317 144.176 833.424 143.93 832.645 143.438C831.865 142.939 831.259 142.233 830.825 141.319C830.397 140.399 830.178 139.336 830.166 138.129V137.206C830.166 135.976 830.38 134.889 830.808 133.945C831.235 133.002 831.839 132.281 832.618 131.783C833.403 131.279 834.3 131.027 835.308 131.027C836.333 131.027 837.235 131.276 838.015 131.774C838.8 132.267 839.403 132.984 839.825 133.928C840.247 134.865 840.458 135.958 840.458 137.206V138.015ZM838.779 137.188C838.779 135.671 838.475 134.508 837.865 133.699C837.256 132.885 836.403 132.478 835.308 132.478C834.241 132.478 833.4 132.885 832.785 133.699C832.176 134.508 831.862 135.633 831.845 137.074V138.015C831.845 139.485 832.152 140.643 832.768 141.486C833.389 142.324 834.241 142.743 835.325 142.743C836.415 142.743 837.259 142.348 837.856 141.557C838.454 140.76 838.762 139.62 838.779 138.138V137.188ZM845.169 131.203L849.353 141.645L853.536 131.203H855.725V144H854.037V139.017L854.195 133.638L849.994 144H848.702L844.51 133.664L844.677 139.017V144H842.989V131.203H845.169ZM865.938 138.085H860.392V142.62H866.834V144H858.704V131.203H866.746V132.592H860.392V136.705H865.938V138.085ZM881.89 132.592H877.776V144H876.098V132.592H871.993V131.203H881.89V132.592ZM891.021 138.085H885.476V142.62H891.918V144H883.788V131.203H891.83V132.592H885.476V136.705H891.021V138.085ZM898.193 136.107L901.261 131.203H903.247L899.204 137.549L903.344 144H901.34L898.193 139.008L895.029 144H893.034L897.183 137.549L893.131 131.203H895.108L898.193 136.107ZM914.146 132.592H910.032V144H908.354V132.592H904.249V131.203H914.146V132.592Z" fill="black"/>
</g>
<path d="M279.926 216.426C277.426 216.426 275.426 218.426 275.426 220.926C275.426 223.426 277.426 225.426 279.926 225.426C282.426 225.426 284.426 223.426 284.426 220.926C284.426 218.426 282.426 216.426 279.926 216.426Z" fill="white"/>
<path d="M330.061 221.987C330.646 221.401 330.646 220.452 330.061 219.866L320.515 210.32C319.929 209.734 318.979 209.734 318.393 210.32C317.808 210.906 317.808 211.855 318.393 212.441L326.879 220.926L318.393 229.412C317.808 229.997 317.808 230.947 318.393 231.533C318.979 232.119 319.929 232.119 320.515 231.533L330.061 221.987ZM276.926 220.926C276.926 219.255 278.255 217.926 279.926 217.926V214.926C276.598 214.926 273.926 217.598 273.926 220.926H276.926ZM279.926 217.926C281.598 217.926 282.926 219.255 282.926 220.926H285.926C285.926 217.598 283.255 214.926 279.926 214.926V217.926ZM282.926 220.926C282.926 222.598 281.598 223.926 279.926 223.926V226.926C283.255 226.926 285.926 224.255 285.926 220.926H282.926ZM279.926 223.926C278.255 223.926 276.926 222.598 276.926 220.926H273.926C273.926 224.255 276.598 226.926 279.926 226.926V223.926ZM284.426 222.426H329V219.426H284.426V222.426Z" fill="black"/>
<path d="M734 218.5C731.5 218.5 729.5 220.5 729.5 223C729.5 225.5 731.5 227.5 734 227.5C736.5 227.5 738.5 225.5 738.5 223C738.5 220.5 736.5 218.5 734 218.5Z" fill="white"/>
<path d="M789.061 301.561C789.646 300.975 789.646 300.025 789.061 299.439L779.515 289.893C778.929 289.308 777.979 289.308 777.393 289.893C776.808 290.479 776.808 291.429 777.393 292.015L785.879 300.5L777.393 308.985C776.808 309.571 776.808 310.521 777.393 311.107C777.979 311.692 778.929 311.692 779.515 311.107L789.061 301.561ZM731 223C731 221.328 732.328 220 734 220V217C730.672 217 728 219.672 728 223H731ZM734 220C735.672 220 737 221.328 737 223H740C740 219.672 737.328 217 734 217V220ZM737 223C737 224.672 735.672 226 734 226V229C737.328 229 740 226.328 740 223H737ZM734 226C732.328 226 731 224.672 731 223H728C728 226.328 730.672 229 734 229V226ZM738.5 224.5H741V221.5H738.5V224.5ZM759.5 243V280.5H762.5V243H759.5ZM781 302H788V299H781V302ZM759.5 280.5C759.5 292.374 769.126 302 781 302V299C770.783 299 762.5 290.717 762.5 280.5H759.5ZM741 224.5C751.217 224.5 759.5 232.783 759.5 243H762.5C762.5 231.126 752.874 221.5 741 221.5V224.5Z" fill="black"/>
<path d="M734 218.5C731.5 218.5 729.5 220.5 729.5 223C729.5 225.5 731.5 227.5 734 227.5C736.5 227.5 738.5 225.5 738.5 223C738.5 220.5 736.5 218.5 734 218.5Z" fill="white"/>
<path d="M793.061 138.561C793.646 137.975 793.646 137.025 793.061 136.439L783.515 126.893C782.929 126.308 781.979 126.308 781.393 126.893C780.808 127.479 780.808 128.429 781.393 129.015L789.879 137.5L781.393 145.985C780.808 146.571 780.808 147.521 781.393 148.107C781.979 148.692 782.929 148.692 783.515 148.107L793.061 138.561ZM731 223C731 221.328 732.328 220 734 220V217C730.672 217 728 219.672 728 223H731ZM734 220C735.672 220 737 221.328 737 223H740C740 219.672 737.328 217 734 217V220ZM737 223C737 224.672 735.672 226 734 226V229C737.328 229 740 226.328 740 223H737ZM734 226C732.328 226 731 224.672 731 223H728C728 226.328 730.672 229 734 229V226ZM738.5 224.5H743V221.5H738.5V224.5ZM764.5 203V157.5H761.5V203H764.5ZM783 139H792V136H783V139ZM764.5 157.5C764.5 147.283 772.783 139 783 139V136C771.126 136 761.5 145.626 761.5 157.5H764.5ZM743 224.5C754.874 224.5 764.5 214.874 764.5 203H761.5C761.5 213.217 753.217 221.5 743 221.5V224.5Z" fill="black"/>
</g>
<defs>
<filter id="filter0_d_1:63" x="-4" y="0" width="1060" height="425" filterUnits="userSpaceOnUse" color-interpolation-filters="sRGB">
<feFlood flood-opacity="0" result="BackgroundImageFix"/>
<feColorMatrix in="SourceAlpha" type="matrix" values="0 0 0 0 0 0 0 0 0 0 0 0 0 0 0 0 0 0 127 0" result="hardAlpha"/>
<feOffset dy="4"/>
<feGaussianBlur stdDeviation="2"/>
<feComposite in2="hardAlpha" operator="out"/>
<feColorMatrix type="matrix" values="0 0 0 0 0 0 0 0 0 0 0 0 0 0 0 0 0 0 0.25 0"/>
<feBlend mode="normal" in2="BackgroundImageFix" result="effect1_dropShadow_1:63"/>
<feBlend mode="normal" in="SourceGraphic" in2="effect1_dropShadow_1:63" result="shape"/>
</filter>
<filter id="filter1_d_1:63" x="784" y="273" width="157" height="63" filterUnits="userSpaceOnUse" color-interpolation-filters="sRGB">
<feFlood flood-opacity="0" result="BackgroundImageFix"/>
<feColorMatrix in="SourceAlpha" type="matrix" values="0 0 0 0 0 0 0 0 0 0 0 0 0 0 0 0 0 0 127 0" result="hardAlpha"/>
<feOffset dy="4"/>
<feGaussianBlur stdDeviation="2"/>
<feComposite in2="hardAlpha" operator="out"/>
<feColorMatrix type="matrix" values="0 0 0 0 0 0 0 0 0 0 0 0 0 0 0 0 0 0 0.25 0"/>
<feBlend mode="normal" in2="BackgroundImageFix" result="effect1_dropShadow_1:63"/>
<feBlend mode="normal" in="SourceGraphic" in2="effect1_dropShadow_1:63" result="shape"/>
</filter>
<filter id="filter2_d_1:63" x="788" y="110" width="157" height="63" filterUnits="userSpaceOnUse" color-interpolation-filters="sRGB">
<feFlood flood-opacity="0" result="BackgroundImageFix"/>
<feColorMatrix in="SourceAlpha" type="matrix" values="0 0 0 0 0 0 0 0 0 0 0 0 0 0 0 0 0 0 127 0" result="hardAlpha"/>
<feOffset dy="4"/>
<feGaussianBlur stdDeviation="2"/>
<feComposite in2="hardAlpha" operator="out"/>
<feColorMatrix type="matrix" values="0 0 0 0 0 0 0 0 0 0 0 0 0 0 0 0 0 0 0.25 0"/>
<feBlend mode="normal" in2="BackgroundImageFix" result="effect1_dropShadow_1:63"/>
<feBlend mode="normal" in="SourceGraphic" in2="effect1_dropShadow_1:63" result="shape"/>
</filter>
</defs>
</svg>
